<?xml version="1.0" standalone="no"?>
<!DOCTYPE svg PUBLIC "-//W3C//DTD SVG 20010904//EN"
 "http://www.w3.org/TR/2001/REC-SVG-20010904/DTD/svg10.dtd">
<svg version="1.0" xmlns="http://www.w3.org/2000/svg"
 width="260.000000pt" height="260.000000pt" viewBox="0 0 260.000000 260.000000"
 preserveAspectRatio="xMidYMid meet">
<metadata>
Created by potrace 1.14, written by Peter Selinger 2001-2017
</metadata>
<g transform="translate(0.000000,260.000000) scale(0.100000,-0.100000)"
fill="#000000" stroke="none">
<path d="M1165 2594 c-187 -28 -320 -70 -466 -146 -445 -231 -720 -708 -696
-1208 30 -607 454 -1103 1049 -1224 115 -24 405 -22 523 3 503 107 899 503
1006 1006 24 114 27 404 5 518 -98 509 -498 916 -1011 1028 -87 19 -340 33
-410 23z m-145 -1100 c0 -3 -19 -32 -41 -65 l-42 -59 -126 0 c-69 0 -144 -5
-166 -10 -49 -11 -93 -58 -168 -176 l-52 -84 -93 0 c-72 0 -92 3 -86 13 53 90
220 330 239 343 58 38 95 43 318 44 119 0 217 -3 217 -6z m680 0 c0 -4 -57
-94 -127 -200 l-128 -194 -97 0 -98 0 37 58 c20 31 58 89 85 129 26 40 48 75
48 78 0 9 -188 5 -216 -5 -32 -13 -34 -15 -126 -152 l-72 -108 -104 0 c-80 0
-102 3 -96 13 34 58 219 329 234 342 43 39 85 44 378 45 155 0 282 -3 282 -6z
m240 1 c0 -3 -18 -30 -40 -60 -22 -30 -40 -57 -40 -60 0 -3 35 -5 78 -5 l77 0
77 65 77 65 96 0 c53 0 95 -4 93 -9 -1 -5 -59 -57 -128 -116 -69 -59 -127
-112 -129 -117 -1 -5 18 -37 45 -71 26 -34 52 -68 57 -74 7 -10 -11 -13 -87
-13 l-96 0 -56 75 -56 75 -64 0 -63 0 -51 -75 -51 -75 -94 0 c-52 0 -95 2 -95
5 0 3 59 93 130 200 l130 195 95 0 c52 0 95 -2 95 -5z"/>
</g>
</svg>
